<mxfile host="Electron" agent="Mozilla/5.0 (X11; Linux x86_64) AppleWebKit/537.36 (KHTML, like Gecko) draw.io/24.7.5 Chrome/126.0.6478.183 Electron/31.3.0 Safari/537.36" version="24.7.5">
  <diagram id="BOabqvcUT-HDXYM-wLo1" name="Page-1">
    <mxGraphModel dx="1434" dy="822" grid="1" gridSize="10" guides="1" tooltips="1" connect="1" arrows="1" fold="1" page="1" pageScale="1" pageWidth="850" pageHeight="1100" math="0" shadow="0">
      <root>
        <mxCell id="0" />
        <mxCell id="1" parent="0" />
        <mxCell id="9nqw4tdUZu72CzklbR2p-10" value="&lt;div&gt;&lt;br&gt;&lt;/div&gt;&lt;div&gt;&lt;br&gt;&lt;/div&gt;&lt;div&gt;&lt;br&gt;&lt;/div&gt;&lt;div style=&quot;text-align: left;&quot;&gt;&lt;span style=&quot;background-color: initial;&quot;&gt;&lt;b&gt;Someone else&#39;s&amp;nbsp;&lt;/b&gt;&lt;/span&gt;&lt;/div&gt;&lt;div style=&quot;text-align: left;&quot;&gt;&lt;span style=&quot;background-color: initial;&quot;&gt;&lt;b&gt;Recorder server&lt;/b&gt;&lt;/span&gt;&lt;/div&gt;&lt;div style=&quot;text-align: left;&quot;&gt;&lt;span style=&quot;background-color: initial;&quot;&gt;(Anyone can run one)&lt;/span&gt;&lt;/div&gt;" style="shape=cylinder3;whiteSpace=wrap;html=1;boundedLbl=1;backgroundOutline=1;size=15;fillColor=#dae8fc;strokeColor=#6c8ebf;" parent="1" vertex="1">
          <mxGeometry x="980" y="1400" width="170" height="240" as="geometry" />
        </mxCell>
        <mxCell id="MHCM0cQoQ7_CIhpQqt6W-57" value="&lt;div&gt;&lt;br&gt;&lt;/div&gt;&lt;div&gt;&lt;br&gt;&lt;/div&gt;&lt;div&gt;&lt;br&gt;&lt;/div&gt;&lt;div style=&quot;text-align: left;&quot;&gt;&lt;span style=&quot;background-color: initial;&quot;&gt;&lt;b&gt;Agora&#39;s Recorder server&lt;/b&gt;&lt;/span&gt;&lt;/div&gt;&lt;div style=&quot;text-align: left;&quot;&gt;&lt;br&gt;&lt;/div&gt;" style="shape=cylinder3;whiteSpace=wrap;html=1;boundedLbl=1;backgroundOutline=1;size=15;fillColor=#f5f5f5;fontColor=#333333;strokeColor=#666666;" parent="1" vertex="1">
          <mxGeometry x="760" y="1230" width="170" height="240" as="geometry" />
        </mxCell>
        <mxCell id="MHCM0cQoQ7_CIhpQqt6W-55" value="&lt;div style=&quot;text-align: justify;&quot;&gt;&lt;span style=&quot;background-color: initial;&quot;&gt;Agora Front&lt;/span&gt;&lt;/div&gt;" style="shape=document;whiteSpace=wrap;html=1;boundedLbl=1;fontStyle=1;fillColor=#f5f5f5;fontColor=#333333;strokeColor=#666666;" parent="1" vertex="1">
          <mxGeometry x="490" y="1130" width="210" height="220" as="geometry" />
        </mxCell>
        <mxCell id="MHCM0cQoQ7_CIhpQqt6W-1" value="Wallet" style="swimlane;whiteSpace=wrap;html=1;" parent="1" vertex="1">
          <mxGeometry x="30" y="880" width="200" height="200" as="geometry" />
        </mxCell>
        <mxCell id="MHCM0cQoQ7_CIhpQqt6W-3" value="Privacy-focused VCs&amp;nbsp;&lt;div&gt;s&lt;span style=&quot;background-color: initial;&quot;&gt;uch as BBS+&lt;/span&gt;&lt;/div&gt;" style="text;html=1;align=center;verticalAlign=middle;resizable=0;points=[];autosize=1;strokeColor=none;fillColor=none;" parent="MHCM0cQoQ7_CIhpQqt6W-1" vertex="1">
          <mxGeometry x="15" y="135" width="140" height="40" as="geometry" />
        </mxCell>
        <mxCell id="MHCM0cQoQ7_CIhpQqt6W-4" value="Security-focused VCs&lt;div&gt;such as SD-JWT&lt;/div&gt;" style="text;html=1;align=center;verticalAlign=middle;resizable=0;points=[];autosize=1;strokeColor=none;fillColor=none;" parent="MHCM0cQoQ7_CIhpQqt6W-1" vertex="1">
          <mxGeometry x="30" y="55" width="140" height="40" as="geometry" />
        </mxCell>
        <mxCell id="MHCM0cQoQ7_CIhpQqt6W-7" style="edgeStyle=orthogonalEdgeStyle;rounded=0;orthogonalLoop=1;jettySize=auto;html=1;entryX=1.038;entryY=0.4;entryDx=0;entryDy=0;entryPerimeter=0;startArrow=classic;startFill=1;exitX=0;exitY=0.25;exitDx=0;exitDy=0;" parent="1" source="MHCM0cQoQ7_CIhpQqt6W-55" target="MHCM0cQoQ7_CIhpQqt6W-3" edge="1">
          <mxGeometry relative="1" as="geometry">
            <Array as="points">
              <mxPoint x="420" y="1185" />
              <mxPoint x="420" y="1031" />
            </Array>
            <mxPoint x="490" y="1032" as="sourcePoint" />
          </mxGeometry>
        </mxCell>
        <mxCell id="MHCM0cQoQ7_CIhpQqt6W-8" value="Use secure biometrics to &lt;b&gt;authorize&lt;/b&gt;&amp;nbsp;&lt;div&gt;&lt;b&gt;an agent&lt;/b&gt; to generate proofs&amp;nbsp;&lt;div&gt;without user interaction for&lt;/div&gt;&lt;/div&gt;&lt;div&gt;a certain amount of time&lt;/div&gt;" style="text;html=1;align=center;verticalAlign=middle;resizable=0;points=[];autosize=1;strokeColor=none;fillColor=none;" parent="1" vertex="1">
          <mxGeometry x="245" y="960" width="220" height="70" as="geometry" />
        </mxCell>
        <mxCell id="MHCM0cQoQ7_CIhpQqt6W-19" style="edgeStyle=orthogonalEdgeStyle;rounded=0;orthogonalLoop=1;jettySize=auto;html=1;exitX=1;exitY=0.5;exitDx=0;exitDy=0;" parent="1" source="MHCM0cQoQ7_CIhpQqt6W-40" target="MHCM0cQoQ7_CIhpQqt6W-44" edge="1">
          <mxGeometry relative="1" as="geometry">
            <mxPoint x="220" y="1215" as="sourcePoint" />
            <mxPoint x="500" y="1260" as="targetPoint" />
            <Array as="points">
              <mxPoint x="350" y="1235" />
              <mxPoint x="350" y="1256" />
            </Array>
          </mxGeometry>
        </mxCell>
        <mxCell id="MHCM0cQoQ7_CIhpQqt6W-20" style="edgeStyle=orthogonalEdgeStyle;rounded=0;orthogonalLoop=1;jettySize=auto;html=1;endArrow=none;endFill=0;entryX=0;entryY=0.5;entryDx=0;entryDy=0;exitX=1;exitY=0.5;exitDx=0;exitDy=0;" parent="1" source="MHCM0cQoQ7_CIhpQqt6W-37" target="MHCM0cQoQ7_CIhpQqt6W-44" edge="1">
          <mxGeometry relative="1" as="geometry">
            <mxPoint x="350" y="1260" as="targetPoint" />
            <mxPoint x="220" y="1245" as="sourcePoint" />
            <Array as="points">
              <mxPoint x="350" y="1465" />
              <mxPoint x="350" y="1256" />
              <mxPoint x="500" y="1256" />
            </Array>
          </mxGeometry>
        </mxCell>
        <mxCell id="MHCM0cQoQ7_CIhpQqt6W-21" value="Privacy-focused&amp;nbsp;&lt;div&gt;&lt;b&gt;digital secret VC&lt;/b&gt;&lt;/div&gt;" style="swimlane;fontStyle=0;childLayout=stackLayout;horizontal=1;startSize=30;horizontalStack=0;resizeParent=1;resizeParentMax=0;resizeLast=0;collapsible=1;marginBottom=0;whiteSpace=wrap;html=1;" parent="1" vertex="1">
          <mxGeometry x="35" y="658.5" width="180" height="160" as="geometry" />
        </mxCell>
        <mxCell id="MHCM0cQoQ7_CIhpQqt6W-22" value="Unbound secret: 16/32 bytes-long&amp;nbsp;&lt;i&gt;secret&lt;/i&gt;&amp;nbsp;value, blind-signed on issuance." style="text;strokeColor=none;fillColor=none;align=left;verticalAlign=middle;spacingLeft=4;spacingRight=4;overflow=hidden;points=[[0,0.5],[1,0.5]];portConstraint=eastwest;rotatable=0;whiteSpace=wrap;html=1;" parent="MHCM0cQoQ7_CIhpQqt6W-21" vertex="1">
          <mxGeometry y="30" width="180" height="50" as="geometry" />
        </mxCell>
        <mxCell id="MHCM0cQoQ7_CIhpQqt6W-23" value="Timebound secret: 16/32 bytes-long &lt;i&gt;secret &lt;/i&gt;value, blind-signed on issuance" style="text;strokeColor=none;fillColor=none;align=left;verticalAlign=middle;spacingLeft=4;spacingRight=4;overflow=hidden;points=[[0,0.5],[1,0.5]];portConstraint=eastwest;rotatable=0;whiteSpace=wrap;html=1;" parent="MHCM0cQoQ7_CIhpQqt6W-21" vertex="1">
          <mxGeometry y="80" width="180" height="80" as="geometry" />
        </mxCell>
        <mxCell id="MHCM0cQoQ7_CIhpQqt6W-25" style="edgeStyle=orthogonalEdgeStyle;rounded=0;orthogonalLoop=1;jettySize=auto;html=1;entryX=1.006;entryY=0.038;entryDx=0;entryDy=0;entryPerimeter=0;" parent="1" target="MHCM0cQoQ7_CIhpQqt6W-23" edge="1">
          <mxGeometry relative="1" as="geometry">
            <Array as="points">
              <mxPoint x="445" y="741.5" />
              <mxPoint x="445" y="741.5" />
            </Array>
            <mxPoint x="525" y="741.5" as="sourcePoint" />
          </mxGeometry>
        </mxCell>
        <mxCell id="MHCM0cQoQ7_CIhpQqt6W-26" value="Makes sure one human can only have one Secret VC&lt;div&gt;Verify one human? Use the ~Hash of the number above&lt;/div&gt;" style="text;html=1;align=center;verticalAlign=middle;resizable=0;points=[];autosize=1;strokeColor=none;fillColor=none;" parent="1" vertex="1">
          <mxGeometry x="210" y="703.5" width="320" height="40" as="geometry" />
        </mxCell>
        <mxCell id="MHCM0cQoQ7_CIhpQqt6W-27" value="Privacy-focused&amp;nbsp;&lt;div&gt;&lt;b&gt;digital human passport VC&lt;/b&gt;&lt;/div&gt;" style="swimlane;fontStyle=0;childLayout=stackLayout;horizontal=1;startSize=30;horizontalStack=0;resizeParent=1;resizeParentMax=0;resizeLast=0;collapsible=1;marginBottom=0;whiteSpace=wrap;html=1;" parent="1" vertex="1">
          <mxGeometry x="45" y="448.5" width="180" height="140" as="geometry" />
        </mxCell>
        <mxCell id="MHCM0cQoQ7_CIhpQqt6W-28" value="Unique 16/32 bytes-long value, only for non-critical purpose" style="text;strokeColor=none;fillColor=none;align=left;verticalAlign=middle;spacingLeft=4;spacingRight=4;overflow=hidden;points=[[0,0.5],[1,0.5]];portConstraint=eastwest;rotatable=0;whiteSpace=wrap;html=1;" parent="MHCM0cQoQ7_CIhpQqt6W-27" vertex="1">
          <mxGeometry y="30" width="180" height="30" as="geometry" />
        </mxCell>
        <mxCell id="MHCM0cQoQ7_CIhpQqt6W-29" value="... and eventually other attributes" style="text;strokeColor=none;fillColor=none;align=left;verticalAlign=middle;spacingLeft=4;spacingRight=4;overflow=hidden;points=[[0,0.5],[1,0.5]];portConstraint=eastwest;rotatable=0;whiteSpace=wrap;html=1;" parent="MHCM0cQoQ7_CIhpQqt6W-27" vertex="1">
          <mxGeometry y="60" width="180" height="80" as="geometry" />
        </mxCell>
        <mxCell id="MHCM0cQoQ7_CIhpQqt6W-31" style="edgeStyle=orthogonalEdgeStyle;rounded=0;orthogonalLoop=1;jettySize=auto;html=1;entryX=1;entryY=0.163;entryDx=0;entryDy=0;entryPerimeter=0;" parent="1" target="MHCM0cQoQ7_CIhpQqt6W-29" edge="1">
          <mxGeometry relative="1" as="geometry">
            <Array as="points" />
            <mxPoint x="522.4999999999999" y="521.5" as="sourcePoint" />
            <mxPoint x="235" y="521.5" as="targetPoint" />
          </mxGeometry>
        </mxCell>
        <mxCell id="MHCM0cQoQ7_CIhpQqt6W-32" value="Issues globally unique identifier&amp;nbsp;&lt;div&gt;to each humans on the planet&lt;/div&gt;" style="text;html=1;align=center;verticalAlign=middle;resizable=0;points=[];autosize=1;strokeColor=none;fillColor=none;" parent="1" vertex="1">
          <mxGeometry x="275" y="481.5" width="190" height="40" as="geometry" />
        </mxCell>
        <mxCell id="MHCM0cQoQ7_CIhpQqt6W-36" value="Privacy-focused digital human passport VC" style="swimlane;fontStyle=0;childLayout=stackLayout;horizontal=1;startSize=30;horizontalStack=0;resizeParent=1;resizeParentMax=0;resizeLast=0;collapsible=1;marginBottom=0;whiteSpace=wrap;html=1;" parent="1" vertex="1">
          <mxGeometry x="30" y="1420" width="180" height="140" as="geometry" />
        </mxCell>
        <mxCell id="MHCM0cQoQ7_CIhpQqt6W-37" value="Unique 16/32 bytes-long value, only for non-critical purpose" style="text;strokeColor=none;fillColor=none;align=left;verticalAlign=middle;spacingLeft=4;spacingRight=4;overflow=hidden;points=[[0,0.5],[1,0.5]];portConstraint=eastwest;rotatable=0;whiteSpace=wrap;html=1;" parent="MHCM0cQoQ7_CIhpQqt6W-36" vertex="1">
          <mxGeometry y="30" width="180" height="30" as="geometry" />
        </mxCell>
        <mxCell id="MHCM0cQoQ7_CIhpQqt6W-38" value="... and that is all" style="text;strokeColor=none;fillColor=none;align=left;verticalAlign=middle;spacingLeft=4;spacingRight=4;overflow=hidden;points=[[0,0.5],[1,0.5]];portConstraint=eastwest;rotatable=0;whiteSpace=wrap;html=1;" parent="MHCM0cQoQ7_CIhpQqt6W-36" vertex="1">
          <mxGeometry y="60" width="180" height="80" as="geometry" />
        </mxCell>
        <mxCell id="MHCM0cQoQ7_CIhpQqt6W-39" value="Privacy-focused digital secret VC" style="swimlane;fontStyle=0;childLayout=stackLayout;horizontal=1;startSize=30;horizontalStack=0;resizeParent=1;resizeParentMax=0;resizeLast=0;collapsible=1;marginBottom=0;whiteSpace=wrap;html=1;" parent="1" vertex="1">
          <mxGeometry x="25" y="1180" width="180" height="160" as="geometry" />
        </mxCell>
        <mxCell id="MHCM0cQoQ7_CIhpQqt6W-40" value="Unbound secret: 16/32 bytes-long&amp;nbsp;&lt;i&gt;secret&lt;/i&gt;&amp;nbsp;value, blind-signed on issuance." style="text;strokeColor=none;fillColor=none;align=left;verticalAlign=middle;spacingLeft=4;spacingRight=4;overflow=hidden;points=[[0,0.5],[1,0.5]];portConstraint=eastwest;rotatable=0;whiteSpace=wrap;html=1;" parent="MHCM0cQoQ7_CIhpQqt6W-39" vertex="1">
          <mxGeometry y="30" width="180" height="50" as="geometry" />
        </mxCell>
        <mxCell id="MHCM0cQoQ7_CIhpQqt6W-42" style="edgeStyle=orthogonalEdgeStyle;rounded=0;orthogonalLoop=1;jettySize=auto;html=1;endArrow=none;endFill=0;" parent="MHCM0cQoQ7_CIhpQqt6W-39" source="MHCM0cQoQ7_CIhpQqt6W-41" edge="1">
          <mxGeometry relative="1" as="geometry">
            <mxPoint x="325" y="120" as="targetPoint" />
          </mxGeometry>
        </mxCell>
        <mxCell id="MHCM0cQoQ7_CIhpQqt6W-41" value="Timebound secret: 16/32 bytes-long &lt;i&gt;secret &lt;/i&gt;value, blind-signed on issuance" style="text;strokeColor=none;fillColor=none;align=left;verticalAlign=middle;spacingLeft=4;spacingRight=4;overflow=hidden;points=[[0,0.5],[1,0.5]];portConstraint=eastwest;rotatable=0;whiteSpace=wrap;html=1;" parent="MHCM0cQoQ7_CIhpQqt6W-39" vertex="1">
          <mxGeometry y="80" width="180" height="80" as="geometry" />
        </mxCell>
        <mxCell id="MHCM0cQoQ7_CIhpQqt6W-43" value="Generate proof with unique pseudonyms&amp;nbsp;&lt;div&gt;uncorrelatable with secrets or unique id.&lt;/div&gt;&lt;div&gt;Proof + Payload represented by CID&lt;/div&gt;" style="text;html=1;align=center;verticalAlign=middle;resizable=0;points=[];autosize=1;strokeColor=none;fillColor=none;" parent="1" vertex="1">
          <mxGeometry x="260" y="1200" width="240" height="60" as="geometry" />
        </mxCell>
        <mxCell id="MHCM0cQoQ7_CIhpQqt6W-44" value="&lt;b&gt;Nostr&lt;/b&gt;&lt;div&gt;&lt;b&gt;Client&lt;/b&gt;&lt;/div&gt;" style="rhombus;whiteSpace=wrap;html=1;fillColor=#f5f5f5;fontColor=#333333;strokeColor=#666666;" parent="1" vertex="1">
          <mxGeometry x="500" y="1220" width="80" height="80" as="geometry" />
        </mxCell>
        <mxCell id="MHCM0cQoQ7_CIhpQqt6W-59" style="edgeStyle=orthogonalEdgeStyle;rounded=0;orthogonalLoop=1;jettySize=auto;html=1;entryX=0;entryY=0.5;entryDx=0;entryDy=0;" parent="1" source="MHCM0cQoQ7_CIhpQqt6W-46" target="MHCM0cQoQ7_CIhpQqt6W-51" edge="1">
          <mxGeometry relative="1" as="geometry">
            <Array as="points">
              <mxPoint x="470" y="1550" />
              <mxPoint x="470" y="1450" />
              <mxPoint x="705" y="1450" />
              <mxPoint x="705" y="1320" />
            </Array>
          </mxGeometry>
        </mxCell>
        <mxCell id="9nqw4tdUZu72CzklbR2p-13" style="edgeStyle=orthogonalEdgeStyle;rounded=0;orthogonalLoop=1;jettySize=auto;html=1;entryX=0;entryY=0.5;entryDx=0;entryDy=0;" parent="1" source="MHCM0cQoQ7_CIhpQqt6W-46" target="9nqw4tdUZu72CzklbR2p-11" edge="1">
          <mxGeometry relative="1" as="geometry">
            <Array as="points">
              <mxPoint x="540" y="1610" />
              <mxPoint x="810" y="1610" />
              <mxPoint x="810" y="1480" />
              <mxPoint x="1070" y="1480" />
            </Array>
          </mxGeometry>
        </mxCell>
        <mxCell id="MHCM0cQoQ7_CIhpQqt6W-46" value="Agora operated &lt;b&gt;Nostr&amp;nbsp;&lt;/b&gt;&lt;div&gt;&lt;b&gt;Relay&lt;/b&gt;&lt;/div&gt;" style="shape=cylinder3;whiteSpace=wrap;html=1;boundedLbl=1;backgroundOutline=1;size=15;fillColor=#f5f5f5;fontColor=#333333;strokeColor=#666666;" parent="1" vertex="1">
          <mxGeometry x="510" y="1500" width="70" height="90" as="geometry" />
        </mxCell>
        <mxCell id="MHCM0cQoQ7_CIhpQqt6W-58" style="edgeStyle=orthogonalEdgeStyle;rounded=0;orthogonalLoop=1;jettySize=auto;html=1;entryX=0.5;entryY=1;entryDx=0;entryDy=0;" parent="1" source="MHCM0cQoQ7_CIhpQqt6W-47" target="MHCM0cQoQ7_CIhpQqt6W-51" edge="1">
          <mxGeometry relative="1" as="geometry" />
        </mxCell>
        <mxCell id="9nqw4tdUZu72CzklbR2p-12" style="edgeStyle=orthogonalEdgeStyle;rounded=0;orthogonalLoop=1;jettySize=auto;html=1;entryX=0.5;entryY=1;entryDx=0;entryDy=0;" parent="1" source="MHCM0cQoQ7_CIhpQqt6W-47" target="9nqw4tdUZu72CzklbR2p-11" edge="1">
          <mxGeometry relative="1" as="geometry" />
        </mxCell>
        <mxCell id="MHCM0cQoQ7_CIhpQqt6W-47" value="Someone else&#39;s &lt;b&gt;Nostr Relay&lt;/b&gt;" style="shape=cylinder3;whiteSpace=wrap;html=1;boundedLbl=1;backgroundOutline=1;size=15;fillColor=#dae8fc;strokeColor=#6c8ebf;" parent="1" vertex="1">
          <mxGeometry x="610" y="1500" width="70" height="90" as="geometry" />
        </mxCell>
        <mxCell id="MHCM0cQoQ7_CIhpQqt6W-48" style="edgeStyle=orthogonalEdgeStyle;rounded=0;orthogonalLoop=1;jettySize=auto;html=1;entryX=0.5;entryY=0;entryDx=0;entryDy=0;entryPerimeter=0;" parent="1" source="MHCM0cQoQ7_CIhpQqt6W-44" target="MHCM0cQoQ7_CIhpQqt6W-46" edge="1">
          <mxGeometry relative="1" as="geometry" />
        </mxCell>
        <mxCell id="MHCM0cQoQ7_CIhpQqt6W-49" style="edgeStyle=orthogonalEdgeStyle;rounded=0;orthogonalLoop=1;jettySize=auto;html=1;entryX=0.5;entryY=0;entryDx=0;entryDy=0;entryPerimeter=0;" parent="1" source="MHCM0cQoQ7_CIhpQqt6W-44" target="MHCM0cQoQ7_CIhpQqt6W-47" edge="1">
          <mxGeometry relative="1" as="geometry">
            <Array as="points">
              <mxPoint x="610" y="1260" />
              <mxPoint x="610" y="1480" />
              <mxPoint x="645" y="1480" />
            </Array>
          </mxGeometry>
        </mxCell>
        <mxCell id="MHCM0cQoQ7_CIhpQqt6W-50" value="or" style="text;html=1;align=center;verticalAlign=middle;resizable=0;points=[];autosize=1;strokeColor=none;fillColor=none;" parent="1" vertex="1">
          <mxGeometry x="205" y="1250" width="30" height="30" as="geometry" />
        </mxCell>
        <mxCell id="MHCM0cQoQ7_CIhpQqt6W-61" style="edgeStyle=orthogonalEdgeStyle;rounded=0;orthogonalLoop=1;jettySize=auto;html=1;entryX=0.085;entryY=0.525;entryDx=0;entryDy=0;entryPerimeter=0;" parent="1" source="MHCM0cQoQ7_CIhpQqt6W-51" target="MHCM0cQoQ7_CIhpQqt6W-60" edge="1">
          <mxGeometry relative="1" as="geometry" />
        </mxCell>
        <mxCell id="MHCM0cQoQ7_CIhpQqt6W-51" value="&lt;b&gt;Nostr&lt;/b&gt;&lt;div&gt;&lt;b&gt;Client&lt;/b&gt;&lt;/div&gt;" style="rhombus;whiteSpace=wrap;html=1;fillColor=#f5f5f5;fontColor=#333333;strokeColor=#666666;" parent="1" vertex="1">
          <mxGeometry x="840" y="1280" width="80" height="80" as="geometry" />
        </mxCell>
        <mxCell id="MHCM0cQoQ7_CIhpQqt6W-60" value="&lt;b&gt;Filecoin&lt;/b&gt;" style="ellipse;shape=cloud;whiteSpace=wrap;html=1;fillColor=#d5e8d4;strokeColor=#82b366;" parent="1" vertex="1">
          <mxGeometry x="1020" y="1100" width="130" height="80" as="geometry" />
        </mxCell>
        <mxCell id="MHCM0cQoQ7_CIhpQqt6W-64" style="edgeStyle=orthogonalEdgeStyle;rounded=0;orthogonalLoop=1;jettySize=auto;html=1;startArrow=classic;startFill=1;endArrow=none;endFill=0;exitX=0.55;exitY=0.95;exitDx=0;exitDy=0;exitPerimeter=0;" parent="1" source="MHCM0cQoQ7_CIhpQqt6W-66" target="MHCM0cQoQ7_CIhpQqt6W-60" edge="1">
          <mxGeometry relative="1" as="geometry">
            <mxPoint x="1160" y="1010" as="sourcePoint" />
            <Array as="points">
              <mxPoint x="1083" y="1080" />
              <mxPoint x="1083" y="1080" />
            </Array>
          </mxGeometry>
        </mxCell>
        <mxCell id="MHCM0cQoQ7_CIhpQqt6W-65" style="edgeStyle=orthogonalEdgeStyle;rounded=0;orthogonalLoop=1;jettySize=auto;html=1;startArrow=classic;startFill=1;" parent="1" source="MHCM0cQoQ7_CIhpQqt6W-63" target="MHCM0cQoQ7_CIhpQqt6W-55" edge="1">
          <mxGeometry relative="1" as="geometry" />
        </mxCell>
        <mxCell id="MHCM0cQoQ7_CIhpQqt6W-63" value="&lt;b&gt;Agora back&lt;/b&gt;" style="shape=cylinder3;whiteSpace=wrap;html=1;boundedLbl=1;backgroundOutline=1;size=15;fillColor=#f5f5f5;fontColor=#333333;strokeColor=#666666;align=left;" parent="1" vertex="1">
          <mxGeometry x="510" y="850" width="147.5" height="230" as="geometry" />
        </mxCell>
        <mxCell id="9nqw4tdUZu72CzklbR2p-4" style="edgeStyle=orthogonalEdgeStyle;rounded=0;orthogonalLoop=1;jettySize=auto;html=1;entryX=1;entryY=0.5;entryDx=0;entryDy=0;entryPerimeter=0;exitX=0.453;exitY=0.055;exitDx=0;exitDy=0;exitPerimeter=0;" parent="1" source="MHCM0cQoQ7_CIhpQqt6W-66" target="9nqw4tdUZu72CzklbR2p-5" edge="1">
          <mxGeometry relative="1" as="geometry">
            <mxPoint x="1090" y="780" as="targetPoint" />
            <Array as="points">
              <mxPoint x="1068" y="845" />
            </Array>
          </mxGeometry>
        </mxCell>
        <mxCell id="MHCM0cQoQ7_CIhpQqt6W-66" value="&lt;b&gt;Data DAO API&lt;/b&gt;&lt;div&gt;Via IPFS or HTTP&lt;/div&gt;" style="ellipse;shape=cloud;whiteSpace=wrap;html=1;fillColor=#d5e8d4;strokeColor=#82b366;" parent="1" vertex="1">
          <mxGeometry x="1000" y="890" width="150" height="110" as="geometry" />
        </mxCell>
        <mxCell id="MHCM0cQoQ7_CIhpQqt6W-67" style="edgeStyle=orthogonalEdgeStyle;rounded=0;orthogonalLoop=1;jettySize=auto;html=1;entryX=1;entryY=0.5;entryDx=0;entryDy=0;entryPerimeter=0;" parent="1" source="MHCM0cQoQ7_CIhpQqt6W-66" target="MHCM0cQoQ7_CIhpQqt6W-63" edge="1">
          <mxGeometry relative="1" as="geometry" />
        </mxCell>
        <mxCell id="9nqw4tdUZu72CzklbR2p-2" value="Data DAO controlled by&amp;nbsp;&lt;div&gt;$PEACE which is used to store/fetch&lt;/div&gt;&lt;div&gt;&lt;span style=&quot;background-color: initial;&quot;&gt;data that verifies the cryptographic condition&lt;/span&gt;&lt;/div&gt;&lt;div&gt;&lt;span style=&quot;background-color: initial;&quot;&gt;shown on the left side&amp;nbsp;&lt;/span&gt;&lt;/div&gt;" style="text;html=1;align=center;verticalAlign=middle;resizable=0;points=[];autosize=1;strokeColor=none;fillColor=none;" parent="1" vertex="1">
          <mxGeometry x="990" y="1020" width="260" height="70" as="geometry" />
        </mxCell>
        <mxCell id="9nqw4tdUZu72CzklbR2p-3" value="Paid API eventually" style="text;html=1;align=center;verticalAlign=middle;resizable=0;points=[];autosize=1;strokeColor=none;fillColor=none;" parent="1" vertex="1">
          <mxGeometry x="910" y="820" width="130" height="30" as="geometry" />
        </mxCell>
        <mxCell id="9nqw4tdUZu72CzklbR2p-5" value="&lt;div&gt;Market Research&lt;/div&gt;" style="shape=cylinder3;whiteSpace=wrap;html=1;boundedLbl=1;backgroundOutline=1;size=15;fillColor=#ffe6cc;strokeColor=#d79b00;" parent="1" vertex="1">
          <mxGeometry x="780" y="790" width="80" height="110" as="geometry" />
        </mxCell>
        <mxCell id="9nqw4tdUZu72CzklbR2p-33" style="edgeStyle=orthogonalEdgeStyle;rounded=0;orthogonalLoop=1;jettySize=auto;html=1;startArrow=classic;startFill=1;entryX=0.5;entryY=0;entryDx=0;entryDy=0;entryPerimeter=0;" parent="1" source="9nqw4tdUZu72CzklbR2p-6" edge="1" target="fR_ARmtr7QuyC3QkmkuL-8">
          <mxGeometry relative="1" as="geometry">
            <mxPoint x="660" y="1045" as="targetPoint" />
          </mxGeometry>
        </mxCell>
        <mxCell id="9nqw4tdUZu72CzklbR2p-6" value="Agora&#39;s own &lt;b&gt;DB&lt;/b&gt;" style="shape=cylinder3;whiteSpace=wrap;html=1;boundedLbl=1;backgroundOutline=1;size=15;fillColor=#f5f5f5;fontColor=#333333;strokeColor=#666666;" parent="1" vertex="1">
          <mxGeometry x="595" y="880" width="55" height="80" as="geometry" />
        </mxCell>
        <mxCell id="9nqw4tdUZu72CzklbR2p-8" style="edgeStyle=orthogonalEdgeStyle;rounded=0;orthogonalLoop=1;jettySize=auto;html=1;exitX=0.5;exitY=0;exitDx=0;exitDy=0;" parent="1" source="MHCM0cQoQ7_CIhpQqt6W-51" edge="1">
          <mxGeometry relative="1" as="geometry">
            <mxPoint x="650" y="927" as="targetPoint" />
            <Array as="points">
              <mxPoint x="810" y="1280" />
              <mxPoint x="810" y="1125" />
              <mxPoint x="720" y="1125" />
              <mxPoint x="720" y="927" />
            </Array>
          </mxGeometry>
        </mxCell>
        <mxCell id="9nqw4tdUZu72CzklbR2p-11" value="Nostr&lt;div&gt;Client&lt;/div&gt;" style="rhombus;whiteSpace=wrap;html=1;fillColor=#dae8fc;strokeColor=#6c8ebf;" parent="1" vertex="1">
          <mxGeometry x="1070" y="1440" width="80" height="80" as="geometry" />
        </mxCell>
        <mxCell id="9nqw4tdUZu72CzklbR2p-14" style="edgeStyle=orthogonalEdgeStyle;rounded=0;orthogonalLoop=1;jettySize=auto;html=1;entryX=0.55;entryY=0.95;entryDx=0;entryDy=0;entryPerimeter=0;dashed=1;" parent="1" source="9nqw4tdUZu72CzklbR2p-11" target="MHCM0cQoQ7_CIhpQqt6W-60" edge="1">
          <mxGeometry relative="1" as="geometry" />
        </mxCell>
        <mxCell id="9nqw4tdUZu72CzklbR2p-15" value="Someone else&#39;s own &lt;b&gt;DB&lt;/b&gt;" style="shape=cylinder3;whiteSpace=wrap;html=1;boundedLbl=1;backgroundOutline=1;size=15;fillColor=#dae8fc;strokeColor=#6c8ebf;" parent="1" vertex="1">
          <mxGeometry x="1170" y="1520" width="60" height="80" as="geometry" />
        </mxCell>
        <mxCell id="9nqw4tdUZu72CzklbR2p-16" style="edgeStyle=orthogonalEdgeStyle;rounded=0;orthogonalLoop=1;jettySize=auto;html=1;entryX=0.5;entryY=0;entryDx=0;entryDy=0;entryPerimeter=0;dashed=1;" parent="1" source="9nqw4tdUZu72CzklbR2p-11" target="9nqw4tdUZu72CzklbR2p-15" edge="1">
          <mxGeometry relative="1" as="geometry" />
        </mxCell>
        <mxCell id="9nqw4tdUZu72CzklbR2p-18" value="Nostr Relay list&lt;div&gt;&lt;b&gt;configurable&lt;/b&gt; client-side&lt;/div&gt;" style="text;html=1;align=center;verticalAlign=middle;resizable=0;points=[];autosize=1;strokeColor=none;fillColor=none;" parent="1" vertex="1">
          <mxGeometry x="500" y="1345" width="150" height="40" as="geometry" />
        </mxCell>
        <mxCell id="9nqw4tdUZu72CzklbR2p-19" value="&lt;div style=&quot;text-align: justify;&quot;&gt;&lt;b style=&quot;text-align: center;&quot;&gt;Other app&lt;/b&gt;&lt;/div&gt;" style="shape=document;whiteSpace=wrap;html=1;boundedLbl=1;fontStyle=1;fillColor=#ffe6cc;strokeColor=#d79b00;" parent="1" vertex="1">
          <mxGeometry x="730" y="770" width="85" height="90" as="geometry" />
        </mxCell>
        <mxCell id="9nqw4tdUZu72CzklbR2p-24" value="Wallet" style="swimlane;whiteSpace=wrap;html=1;dashed=1;" parent="1" vertex="1">
          <mxGeometry x="15" y="1140" width="240" height="440" as="geometry" />
        </mxCell>
        <mxCell id="9nqw4tdUZu72CzklbR2p-28" value="Some Global&lt;div&gt;Organization Issuer&lt;/div&gt;" style="rounded=0;whiteSpace=wrap;html=1;fillColor=#e1d5e7;strokeColor=#9673a6;" parent="1" vertex="1">
          <mxGeometry x="522.5" y="647" width="115" height="183" as="geometry" />
        </mxCell>
        <mxCell id="9nqw4tdUZu72CzklbR2p-29" value="Some Global&lt;div&gt;Organization Issuer&lt;/div&gt;" style="rounded=0;whiteSpace=wrap;html=1;fillColor=#e1d5e7;strokeColor=#9673a6;" parent="1" vertex="1">
          <mxGeometry x="522.5" y="427" width="115" height="183" as="geometry" />
        </mxCell>
        <mxCell id="9nqw4tdUZu72CzklbR2p-31" value="Wallet" style="swimlane;whiteSpace=wrap;html=1;dashed=1;" parent="1" vertex="1">
          <mxGeometry x="25" y="390" width="240" height="440" as="geometry" />
        </mxCell>
        <mxCell id="9nqw4tdUZu72CzklbR2p-34" value="Paid API eventually" style="text;html=1;align=center;verticalAlign=middle;resizable=0;points=[];autosize=1;strokeColor=none;fillColor=none;" parent="1" vertex="1">
          <mxGeometry x="860" y="950" width="130" height="30" as="geometry" />
        </mxCell>
        <mxCell id="fR_ARmtr7QuyC3QkmkuL-1" value="Decentralized&lt;div&gt;Verifiable&lt;div&gt;Data&lt;/div&gt;&lt;div&gt;Registry&lt;/div&gt;&lt;/div&gt;" style="shape=cylinder3;whiteSpace=wrap;html=1;boundedLbl=1;backgroundOutline=1;size=15;fillColor=#f8cecc;strokeColor=#b85450;" vertex="1" parent="1">
          <mxGeometry x="720" y="521.5" width="110" height="190" as="geometry" />
        </mxCell>
        <mxCell id="fR_ARmtr7QuyC3QkmkuL-2" style="edgeStyle=orthogonalEdgeStyle;rounded=0;orthogonalLoop=1;jettySize=auto;html=1;entryX=0;entryY=0.366;entryDx=0;entryDy=0;entryPerimeter=0;" edge="1" parent="1" source="9nqw4tdUZu72CzklbR2p-29" target="fR_ARmtr7QuyC3QkmkuL-1">
          <mxGeometry relative="1" as="geometry" />
        </mxCell>
        <mxCell id="fR_ARmtr7QuyC3QkmkuL-3" style="edgeStyle=orthogonalEdgeStyle;rounded=0;orthogonalLoop=1;jettySize=auto;html=1;entryX=0;entryY=0;entryDx=0;entryDy=135;entryPerimeter=0;" edge="1" parent="1" source="9nqw4tdUZu72CzklbR2p-28" target="fR_ARmtr7QuyC3QkmkuL-1">
          <mxGeometry relative="1" as="geometry" />
        </mxCell>
        <mxCell id="fR_ARmtr7QuyC3QkmkuL-4" value="Other decentralized&lt;div&gt;Social protocols&lt;/div&gt;" style="ellipse;shape=cloud;whiteSpace=wrap;html=1;fillColor=#60a917;strokeColor=#2D7600;fontColor=#ffffff;" vertex="1" parent="1">
          <mxGeometry x="800" y="1050" width="140" height="90" as="geometry" />
        </mxCell>
        <mxCell id="fR_ARmtr7QuyC3QkmkuL-6" style="edgeStyle=orthogonalEdgeStyle;rounded=0;orthogonalLoop=1;jettySize=auto;html=1;entryX=0.8;entryY=0.8;entryDx=0;entryDy=0;entryPerimeter=0;exitX=0.906;exitY=0.025;exitDx=0;exitDy=0;exitPerimeter=0;dashed=1;" edge="1" parent="1" source="MHCM0cQoQ7_CIhpQqt6W-57" target="fR_ARmtr7QuyC3QkmkuL-4">
          <mxGeometry relative="1" as="geometry">
            <Array as="points">
              <mxPoint x="912" y="1236" />
            </Array>
          </mxGeometry>
        </mxCell>
        <mxCell id="fR_ARmtr7QuyC3QkmkuL-7" value="Potential cross-posting" style="text;html=1;align=center;verticalAlign=middle;resizable=0;points=[];autosize=1;strokeColor=none;fillColor=none;" vertex="1" parent="1">
          <mxGeometry x="870" y="1150" width="140" height="30" as="geometry" />
        </mxCell>
        <mxCell id="fR_ARmtr7QuyC3QkmkuL-8" value="Local Polis fork" style="shape=cylinder3;whiteSpace=wrap;html=1;boundedLbl=1;backgroundOutline=1;size=15;fillColor=#f5f5f5;fontColor=#333333;strokeColor=#666666;" vertex="1" parent="1">
          <mxGeometry x="592.5" y="990" width="60" height="80" as="geometry" />
        </mxCell>
        <mxCell id="fR_ARmtr7QuyC3QkmkuL-9" style="edgeStyle=orthogonalEdgeStyle;rounded=0;orthogonalLoop=1;jettySize=auto;html=1;entryX=0.96;entryY=0.7;entryDx=0;entryDy=0;entryPerimeter=0;exitX=0.5;exitY=0;exitDx=0;exitDy=0;exitPerimeter=0;dashed=1;" edge="1" parent="1" source="9nqw4tdUZu72CzklbR2p-10" target="fR_ARmtr7QuyC3QkmkuL-4">
          <mxGeometry relative="1" as="geometry">
            <Array as="points">
              <mxPoint x="1065" y="1270" />
              <mxPoint x="1000" y="1270" />
              <mxPoint x="1000" y="1113" />
            </Array>
          </mxGeometry>
        </mxCell>
        <mxCell id="fR_ARmtr7QuyC3QkmkuL-11" value="Embedded Polis views" style="rounded=1;whiteSpace=wrap;html=1;fillColor=#f5f5f5;fontColor=#333333;strokeColor=#666666;" vertex="1" parent="1">
          <mxGeometry x="590" y="1140" width="100" height="50" as="geometry" />
        </mxCell>
      </root>
    </mxGraphModel>
  </diagram>
</mxfile>
